<svg width="181" height="97" viewBox="0 0 181 97" fill="none" xmlns="http://www.w3.org/2000/svg">
<path d="M56.8 59.7C56.6 59.5 56.6 59.4 56.4 59.4C55.8 59.7 55.4 59.9 54.9 60.3C50.7 63 47.9 64.2 44.7 61.5C42.8 59.9 41.8 56.4 42.3 52.7C42.5 49.4 42.7 48.2 44.1 43.3C44.5 42.1 45 40.1 45.4 39.1C45.8 38.2 46 37.5 46.3 36.8C47 34.9 47.9 32.9 48.5 31C49 29.5 50.4 27.3 51 25.4C51.6 23.6 52.6 21.5 52.8 19.5C53 18.6 53.3 17.6 53.2 16.5C53.2 13.3 52.7 11.7 51.5 10C49.3 6.9 45.6 6.5 43 6.4C36.7 6.4 28.9 11.9 24.1 18.3C24.2 14.8 25 11.2 24.8 7.8C24.6 5.2 23.8 2.7 21.6 1.7C19 0.499997 16.2 0.799999 13.3 2.2C10.3 3.6 5.1 8.3 3.5 10.9C2.8 11.7 1.8 13.2 1.2 14.1C0.9 14.6 1 15.2 1 15.7C1 16.4 2.1 17.4 2.6 17.9C3.7 18.2 4.1 17.8 4.4 16.9C5.1 15 5.9 13.7 7.2 11.9C8.3 10.5 9.1 9.6 10.4 8.3L10.7 7.9C13.1 5.9 14.9 4.5 17.4 3.5C18.4 3.2 18.9 3.3 19.4 4.3C19.6 4.6 19.8 5.1 19.9 5.6C19.9 7.1 20.2 8.6 20.1 10.1C19.9 12 19.6 14 19.5 16.1L18.2 22.7C18.1 23.5 17.9 24.3 17.6 25.1C17.2 27.2 16.8 28.7 16 31.6L14.2 37.6C12.7 42.5 11.5 45.7 9.6 50.4C9.2 51 8.8 51.7 8.7 52.3C8.6 52.7 8.7 53.1 8.8 53.4C9.5 54.1 10.2 54.6 10.9 55.1C11.7 55.6 12.6 55.3 13 54.6C13.4 53.8 13.7 53 14.1 52.2C14.7 50.5 15.3 49.2 15.9 47.4C16.8 44.7 17.3 43 18.2 40.4C19.2 37.6 19.8 35.1 20.9 32.6C21.6 31.2 21.8 29.9 22.6 28.8C23.3 27.2 24.2 25.7 25.1 24.2C25.7 23.1 25.7 23.1 26.2 22.3C27 21 27.7 20.2 28.4 19.4C29 18.7 29.8 18 30.4 17.4C31.3 16.5 31.9 16 32.8 15.2L35.5 12.7C37.2 11.1 39.4 10.1 41.7 9.9C44.6 9.7 47.1 10.2 48 13C49.1 16.5 48.2 20.3 46.5 23.6C45.8 24.4 46.3 25.7 45.9 26.3L45 27.5C44.9 28.2 44.4 29.4 44.1 30C43.5 31.3 43.1 32.4 42.5 33.8C42.3 34.3 42.1 34.8 42.1 35.4C41.2 38.2 40.3 40.3 39.4 43.2C38.8 45.2 38.3 47.5 37.9 49.8C37.2 53.9 37.8 59.6 41 62.3C42 63.1 43 64 44.1 64.4C46.1 65.1 48.1 65.6 50.4 64.9C52 64.7 53.4 64.2 54.4 62.9C54.6 62.6 56.5 60.6 56.8 59.7ZM93.8609 30.7L93.4609 29.8L93.1609 29.6C92.1609 30.2 91.3609 30.7 90.6609 31.3C88.3609 32.8 88.5609 32.6 86.1609 34.1C84.7609 35.1 83.2609 36 81.9609 36.8C80.5609 37.8 78.9609 39 77.3609 39.7C76.9609 39.9 76.5609 39.9 76.2609 40C75.9609 40.1 75.7609 40.1 75.5609 40C75.0609 39.7 74.7609 39.3 74.6609 38.9C74.0609 37.5 74.0609 36 74.3609 34.6C74.4609 34.4 74.4609 34.2 74.5609 34.1C74.8609 33.3 74.7609 32.2 74.7609 32.2C74.5609 31.5 74.1609 31 73.5609 30.8C72.3609 30.7 71.6609 31.5 70.8609 31.6C71.3609 30.6 72.1609 29.7 71.8609 28.3C71.4609 26 69.0609 25.6 66.9609 25.2C65.0609 25.4 63.3609 26.6 62.1609 27.9C60.9609 29.4 59.6609 30.6 58.5609 32.3C58.3609 32.5 58.1609 33 57.7609 33.5L57.0609 34.7C56.8609 35.4 56.5609 35.9 56.4609 36.5C56.4609 36.6 56.4609 36.6 56.3609 36.7C56.1609 37.3 55.9609 37.8 55.6609 38.5C55.2609 40 55.5609 41.3 56.4609 42.5C57.0609 42.8 57.8609 43.3 58.0609 43.5C58.3609 43.6 58.6609 43.6 58.8609 43.6C60.3609 44.2 62.0609 44.2 63.6609 43.4C65.2609 42.7 66.8609 41.4 68.0609 40.5C68.2609 40.4 68.3609 40.1 68.5609 39.9C69.2609 39.9 69.2609 38.9 69.9609 38.5C70.0609 38.7 70.0609 38.9 70.2609 39C70.5609 39.5 70.4609 39.7 71.0609 40.3C71.4609 41.2 72.1609 41.6 72.7609 42.4C73.0609 42.5 73.2609 42.9 73.5609 43C73.7609 43.2 74.3609 43.2 74.5609 43.3C74.9609 43.4 75.8609 43.2 76.2609 43.2C76.5609 43.2 77.0609 43 77.1609 43C77.4609 43 77.9609 42.8 78.1609 42.7C78.6609 42.4 78.9609 42.5 79.5609 42.2C80.5609 41.5 81.4609 41.3 82.2609 40.4L84.6609 38.6L86.1609 37.3C86.4609 37.2 87.1609 36.4 87.2609 36.3C87.7609 36.1 88.1609 35.6 88.4609 35.3C88.7609 35.1 89.4609 34.8 89.9609 34.4C91.2609 33.5 92.8609 32.2 93.8609 30.7ZM69.4609 33.5C67.9609 35.1 67.2609 36.3 65.7609 37.9C64.7609 39 63.8609 39.7 62.5609 40.2C61.5609 40.6 59.7609 40.7 58.6609 40.7C59.1609 38.7 60.0609 37 60.9609 35.4C62.0609 33.5 65.5609 28.8 68.5609 28.3C68.4609 28.4 67.6609 32.8 69.8609 33H69.9609C69.9609 33 69.5609 33.5 69.4609 33.5ZM109.358 52.8C108.658 52.3 107.658 52.1 106.858 51.5C105.458 50.9 105.058 50.5 105.058 50.5C105.158 50 105.058 49.1 105.058 48.9C105.058 48.8 105.058 48.7 104.858 48.6C104.958 48.6 105.058 48.5 105.258 48.3C105.058 47.6 104.958 47.1 104.758 46.6C104.358 45.4 103.858 44.3 103.158 43.4C102.258 42.3 101.258 41.6 99.4578 41C98.0578 40.7 96.3578 40.9 95.4578 41C96.9578 39.3 97.9578 38.4 98.7578 37.4C99.5578 36.7 100.058 36.1 100.858 35.5C100.858 35.5 100.958 35.5 101.058 35.4C101.758 34.7 102.458 34 102.958 33.1C103.858 32.2 104.658 31.2 105.358 30.3C105.958 29.9 106.458 29.5 106.158 28.9C106.558 28.5 106.958 28.3 106.658 28C106.358 27.6 105.958 27.1 105.358 27C104.658 26.7 104.358 26.4 103.358 26.4L98.8578 26.6C98.0578 26.5 97.3578 26.5 96.4578 26.6H94.5578C94.1578 26.5 93.4578 26.5 92.9578 26.9C92.5578 26.9 92.8578 27.6 92.4578 27.8C92.3578 28 92.2578 28.3 92.5578 28.5C92.9578 28.6 93.0578 28.9 93.4578 29.2C93.8578 29.9 94.8578 30 95.5578 30C97.8578 30 99.3578 30 101.558 29.8C101.258 30 100.458 30.9 99.6578 31.8C98.0578 33.7 95.4578 36.2 95.2578 36.4C93.8578 37.6 92.5578 38.4 91.5578 39.8C91.7578 39.8 91.3578 41.9 91.9578 42.3C92.1578 42.8 92.6578 43.4 92.8578 43.9C93.0578 44.8 93.7578 44.7 94.4578 44.7C96.5578 44.3 96.8578 44.2 98.8578 44.8C101.058 45.9 101.258 47.6 101.258 49.9C100.758 49.8 99.8578 49.9 99.0578 49.9C98.3578 49.8 97.4578 49.8 97.0578 50C96.3578 50.3 95.7578 50.7 94.9578 50.7C93.1578 51.3 91.5578 52.1 89.7578 53.4C89.2578 53.6 88.8578 53.9 88.2578 54.3C87.0578 55.5 85.6578 56.7 84.3578 58C83.2578 59.1 82.1578 60 81.0578 61.4C79.7578 63.2 78.4578 65.3 77.2578 67.2C76.0578 69.1 74.8578 71.5 73.8578 73.8C72.9578 76.3 72.1578 78.8 71.4578 81.3C71.1578 81.9 71.2578 82.3 71.1578 82.8C71.0578 83.8 70.7578 84.8 70.3578 85.7C70.3578 86.1 70.6578 86.6 70.5578 86.8C70.2578 87.7 70.0578 88.6 70.5578 89.7C70.6578 89.8 70.6578 89.9 70.7578 90.4C70.9578 91.7 71.4578 92.6 72.0578 93.3C72.5578 94.1 73.2578 94.5 73.7578 95.2C74.6578 96 75.9578 96.3 77.3578 95.8C77.9578 95.7 78.5578 95.3 79.0578 95.2C80.1578 95.3 80.9578 94.6 81.6578 94.2C83.1578 93.5 84.0578 92.9 85.2578 91.8C85.8578 91.5 86.4578 91.4 86.8578 90.9C88.0578 89.8 89.0578 88.8 89.9578 87.8C90.1578 87.3 90.6578 87.2 91.0578 86.8C91.2578 86.5 91.3578 86.3 91.5578 86.1C91.7578 86 91.9578 85.4 92.0578 85.2L92.9578 84.2C92.9578 84.1 93.3578 83.8 93.4578 83.6C94.0578 82.9 94.4578 82.5 94.9578 81.8C95.2578 81 95.9578 80 96.4578 78.9C96.5578 78.8 96.5578 78.5 96.6578 78.2C97.0578 77.9 97.4578 77.3 97.8578 76.9C98.2578 76.3 98.3578 75.8 98.5578 75.3C99.3578 73.9 100.358 72.3 100.858 70.5C100.858 70.5 100.858 70.4 101.158 70.3C101.358 69.6 101.458 69 101.658 68.4C101.658 68.5 101.858 68.5 102.158 68.5C102.058 68.3 102.058 68.2 101.858 68C102.058 67.7 102.258 67.4 102.258 67.3L102.858 64.5C103.058 64 103.158 63.6 103.258 63.1C103.458 62.8 103.758 62.4 103.858 62.1C103.658 61.7 103.858 60.9 103.858 60.4C103.858 59.5 104.358 58.5 104.458 57.6C104.358 57.2 104.658 56.9 104.758 55.8C104.558 55.8 104.558 55.8 104.558 55.6C104.658 55.4 104.858 54.7 105.158 54.3C105.258 54 105.358 53.6 104.958 52.8C106.358 53 107.158 53.4 108.258 53.8C108.958 54.2 109.358 54.7 110.158 54.9C110.258 55.3 110.758 55.3 111.058 55C110.458 53.9 109.958 53.3 109.358 52.8ZM100.258 59.8C99.8578 61.4 99.3578 63.1 98.8578 64.8C97.9578 66.8 96.7578 69.1 95.8578 71C94.7578 73.2 93.2578 75.5 91.8578 77.5C90.8578 79 89.7578 80.6 88.6578 81.9C87.7578 83.3 86.5578 84.3 85.5578 85.2C84.1578 86.7 82.3578 87.8 80.8578 88.9C79.6578 89.6 78.3578 90 76.9578 90.9C76.4578 91 75.7578 91.5 75.3578 91.2C74.7578 91.2 74.6578 91 74.3578 90.8C74.8578 89.9 74.7578 89.4 74.6578 88.8C74.1578 88.5 74.2578 88.1 74.6578 87.6C74.8578 87 74.8578 86.2 74.9578 85.6C75.1578 84 75.4578 82.3 75.7578 80.9C75.9578 80 76.0578 79.4 76.1578 78.6C76.1578 78.5 76.2578 78.5 76.4578 78.3C76.6578 77.8 77.4578 76.1 77.5578 75.4L79.1578 71.8C79.1578 71.7 78.9578 71.3 79.0578 71C79.5578 70.9 79.7578 70.6 79.9578 70.4V70.3L79.7578 70.1C80.5578 69.1 81.1578 67.9 82.2578 66.6C82.6578 66.5 83.2578 64.7 83.7578 64.8C83.7578 64.3 84.1578 63.9 84.8578 63.5C85.0578 63.4 85.2578 63 85.3578 62.7C85.7578 62.4 86.1578 61.9 86.3578 61.7C86.4578 61.4 86.8578 60.9 86.9578 60.5C87.1578 60.5 87.2578 60.4 87.7578 60.2H88.0578C88.2578 59.7 88.5578 59.7 89.0578 59.4C90.1578 59.3 90.7578 57.7 91.8578 56.9C92.1578 56.9 92.3578 56.1 93.0578 56.3C93.1578 56.3 93.1578 56 93.2578 55.8C93.8578 55.6 94.5578 55.7 95.2578 55.3C95.6578 54.8 96.0578 54.8 96.3578 54.7C97.2578 54.4 98.1578 54 99.0578 53.5L100.958 53.2C101.058 55.6 100.858 57.6 100.258 59.8ZM137.339 34.2C137.639 34 137.839 33.7 138.139 33.5C138.139 33.4 138.039 33.4 138.039 33.4L137.839 32.7L134.439 35.2C134.239 35.4 133.639 35.7 133.239 35.9C132.239 36.5 130.339 37.6 129.439 38.2L129.139 38.4L125.839 40.3C125.339 40.6 124.839 40.6 124.339 40.8C123.539 41.1 122.739 41.5 122.039 41.8C121.139 42.1 120.239 42.5 119.339 42.6C118.039 42.8 116.739 42.7 115.439 42.8C114.639 42.5 114.439 42.3 114.039 41.1C114.739 40.7 115.039 40.6 115.839 40.2C116.039 40 116.239 39.7 116.539 39.6C117.139 39.2 117.939 38.9 118.639 38.5C118.739 38.4 118.739 38.1 118.839 38L120.239 37C120.639 36.8 121.339 36.7 121.439 36C121.539 35.7 122.139 35.6 122.439 35.3C123.339 34.4 124.239 33.5 125.139 32.5C125.439 32.2 125.739 31.7 125.939 31.2C126.239 30.4 125.739 28.7 124.939 28.2C124.239 27.6 123.439 27 122.539 26.6C121.839 26.2 120.939 25.5 119.939 25.9C119.539 26 119.239 26.1 118.939 26.1C117.639 26.2 116.539 26.8 115.639 27.7C114.739 28.7 113.839 29.7 112.939 30.8C112.439 31.4 112.039 32 111.639 32.6C110.639 34.5 110.139 36.4 110.039 38.4C110.039 39.1 109.939 39.8 110.439 41C110.639 42 110.639 42 110.839 42.2C111.439 43.1 111.839 43.7 112.539 44.2C112.639 44.3 112.939 44.4 113.039 44.6C114.039 45.4 114.439 45.5 115.339 45.8C116.239 46.1 117.339 46.3 118.339 46.4C119.139 46.5 119.839 46.3 120.639 46.1C121.139 46 121.739 45.9 122.139 45.7C122.439 45.5 122.639 45.4 123.039 45.4C123.739 45.3 124.439 45.3 125.039 45C126.039 44.6 126.839 43.9 127.739 43.4C128.439 42.9 129.039 42.5 129.839 42.1L131.739 40.6C132.139 40.3 132.639 39.9 133.039 39.5C133.139 39.4 133.539 39 133.639 38.7V38.6C133.739 37.9 134.139 37.7 134.539 37.4C134.239 37.1 134.439 36.9 134.839 36.7L135.139 36.3C135.639 36 135.639 35.7 135.839 35.5L137.339 34.2ZM114.639 35C115.239 33.8 115.939 32.6 116.739 31.5C117.439 30.6 118.339 30.1 119.239 29.4C120.039 28.8 120.939 28.8 121.839 28.4C122.239 28.2 122.739 29.1 122.439 29.6C122.039 30.3 121.639 30.9 121.039 31.4L118.339 33.8L115.639 36C115.239 36.3 114.739 36.6 113.939 37.1C114.139 36.3 114.339 35.6 114.639 35ZM163.511 34.2C163.811 34 164.011 33.7 164.311 33.5C164.311 33.4 164.211 33.4 164.211 33.4L164.011 32.7L160.611 35.2C160.411 35.4 159.811 35.7 159.411 35.9C158.411 36.5 156.511 37.6 155.611 38.2L155.311 38.4L152.011 40.3C151.511 40.6 151.011 40.6 150.511 40.8C149.711 41.1 148.911 41.5 148.211 41.8C147.311 42.1 146.411 42.5 145.511 42.6C144.211 42.8 142.911 42.7 141.611 42.8C140.811 42.5 140.611 42.3 140.211 41.1C140.911 40.7 141.211 40.6 142.011 40.2C142.211 40 142.411 39.7 142.711 39.6C143.311 39.2 144.111 38.9 144.811 38.5C144.911 38.4 144.911 38.1 145.011 38L146.411 37C146.811 36.8 147.511 36.7 147.611 36C147.711 35.7 148.311 35.6 148.611 35.3C149.511 34.4 150.411 33.5 151.311 32.5C151.611 32.2 151.911 31.7 152.111 31.2C152.411 30.4 151.911 28.7 151.111 28.2C150.411 27.6 149.611 27 148.711 26.6C148.011 26.2 147.111 25.5 146.111 25.9C145.711 26 145.411 26.1 145.111 26.1C143.811 26.2 142.711 26.8 141.811 27.7C140.911 28.7 140.011 29.7 139.111 30.8C138.611 31.4 138.211 32 137.811 32.6C136.811 34.5 136.311 36.4 136.211 38.4C136.211 39.1 136.111 39.8 136.611 41C136.811 42 136.811 42 137.011 42.2C137.611 43.1 138.011 43.7 138.711 44.2C138.811 44.3 139.111 44.4 139.211 44.6C140.211 45.4 140.611 45.5 141.511 45.8C142.411 46.1 143.511 46.3 144.511 46.4C145.311 46.5 146.011 46.3 146.811 46.1C147.311 46 147.911 45.9 148.311 45.7C148.611 45.5 148.811 45.4 149.211 45.4C149.911 45.3 150.611 45.3 151.211 45C152.211 44.6 153.011 43.9 153.911 43.4C154.611 42.9 155.211 42.5 156.011 42.1L157.911 40.6C158.311 40.3 158.811 39.9 159.211 39.5C159.311 39.4 159.711 39 159.811 38.7V38.6C159.911 37.9 160.311 37.7 160.711 37.4C160.411 37.1 160.611 36.9 161.011 36.7L161.311 36.3C161.811 36 161.811 35.7 162.011 35.5L163.511 34.2ZM140.811 35C141.411 33.8 142.111 32.6 142.911 31.5C143.611 30.6 144.511 30.1 145.411 29.4C146.211 28.8 147.111 28.8 148.011 28.4C148.411 28.2 148.911 29.1 148.611 29.6C148.211 30.3 147.811 30.9 147.211 31.4L144.511 33.8L141.811 36C141.411 36.3 140.911 36.6 140.111 37.1C140.311 36.3 140.511 35.6 140.811 35ZM163.63 45.8C164.43 46.1 164.83 45.9 165.03 44.7C165.23 44 165.23 43.3 165.43 42.6C165.73 41.7 165.83 40.8 166.23 39.8C166.83 38.6 167.63 37.5 168.23 36.1C168.93 34.9 169.73 33.9 170.43 32.9L172.33 30.4C172.83 29.9 173.43 29.4 174.03 28.9C174.23 28.6 174.43 28.2 174.73 28.1C175.33 27.7 175.93 27.5 176.33 27C176.93 26.5 177.53 26.6 178.13 26.6C179.43 27.2 180.03 26.9 180.03 26.9L180.13 26.4C179.93 25.9 179.73 25.5 179.33 25.2C179.13 25.2 179.03 25 178.93 24.9C178.53 24.5 178.03 24.1 177.53 23.7C176.33 23 174.93 23 173.63 24C172.53 24.7 171.43 25.5 170.53 26.8C169.83 27.5 169.23 28 168.73 28.9C168.63 29.2 168.23 29.5 167.93 29.9C167.93 29.4 168.13 29.1 168.13 28.8C168.23 27.9 168.13 27 167.83 26.2C167.43 24.7 166.63 24.2 165.63 24.6C165.33 24.6 164.93 24.8 164.73 25.1C164.63 25.2 164.63 25.6 164.53 25.8C164.33 27.2 164.03 28.5 163.83 29.9C163.63 31.2 163.13 32.6 162.93 34C162.93 35.1 162.53 36.2 162.33 37.3L161.53 41.4C161.23 42.7 161.73 43.7 162.13 44.7C162.93 45.1 163.03 45.5 163.63 45.8Z" fill="#252871"/>
</svg>
