<svg width="210" height="143" viewBox="0 0 210 143" fill="none" xmlns="http://www.w3.org/2000/svg">
<path d="M60.8 91.7C60.6 91.5 60.6 91.4 60.4 91.4C59.8 91.7 59.4 91.9 58.9 92.3C54.7 95 51.9 96.2 48.7 93.5C46.8 91.9 45.8 88.4 46.3 84.7C46.5 81.4 46.7 80.2 48.1 75.3C48.5 74.1 49 72.1 49.4 71.1C49.8 70.2 50 69.5 50.3 68.8C51 66.9 51.9 64.9 52.5 63C53 61.5 54.4 59.3 55 57.4C55.6 55.6 56.6 53.5 56.8 51.5C57 50.6 57.3 49.6 57.2 48.5C57.2 45.3 56.7 43.7 55.5 42C53.3 38.9 49.6 38.5 47 38.4C40.7 38.4 32.9 43.9 28.1 50.3C28.2 46.8 29 43.2 28.8 39.8C28.6 37.2 27.8 34.7 25.6 33.7C23 32.5 20.2 32.8 17.3 34.2C14.3 35.6 9.1 40.3 7.5 42.9C6.8 43.7 5.8 45.2 5.2 46.1C4.9 46.6 5 47.2 5 47.7C5 48.4 6.1 49.4 6.6 49.9C7.7 50.2 8.1 49.8 8.4 48.9C9.1 47 9.9 45.7 11.2 43.9C12.3 42.5 13.1 41.6 14.4 40.3L14.7 39.9C17.1 37.9 18.9 36.5 21.4 35.5C22.4 35.2 22.9 35.3 23.4 36.3C23.6 36.6 23.8 37.1 23.9 37.6C23.9 39.1 24.2 40.6 24.1 42.1C23.9 44 23.6 46 23.5 48.1L22.2 54.7C22.1 55.5 21.9 56.3 21.6 57.1C21.2 59.2 20.8 60.7 20 63.6L18.2 69.6C16.7 74.5 15.5 77.7 13.6 82.4C13.2 83 12.8 83.7 12.7 84.3C12.6 84.7 12.7 85.1 12.8 85.4C13.5 86.1 14.2 86.6 14.9 87.1C15.7 87.6 16.6 87.3 17 86.6C17.4 85.8 17.7 85 18.1 84.2C18.7 82.5 19.3 81.2 19.9 79.4C20.8 76.7 21.3 75 22.2 72.4C23.2 69.6 23.8 67.1 24.9 64.6C25.6 63.2 25.8 61.9 26.6 60.8C27.3 59.2 28.2 57.7 29.1 56.2C29.7 55.1 29.7 55.1 30.2 54.3C31 53 31.7 52.2 32.4 51.4C33 50.7 33.8 50 34.4 49.4C35.3 48.5 35.9 48 36.8 47.2L39.5 44.7C41.2 43.1 43.4 42.1 45.7 41.9C48.6 41.7 51.1 42.2 52 45C53.1 48.5 52.2 52.3 50.5 55.6C49.8 56.4 50.3 57.7 49.9 58.3L49 59.5C48.9 60.2 48.4 61.4 48.1 62C47.5 63.3 47.1 64.4 46.5 65.8C46.3 66.3 46.1 66.8 46.1 67.4C45.2 70.2 44.3 72.3 43.4 75.2C42.8 77.2 42.3 79.5 41.9 81.8C41.2 85.9 41.8 91.6 45 94.3C46 95.1 47 96 48.1 96.4C50.1 97.1 52.1 97.6 54.4 96.9C56 96.7 57.4 96.2 58.4 94.9C58.6 94.6 60.5 92.6 60.8 91.7Z" fill="#252871"/>
<path class='logo-fill' d="M98.9 66.7L98.5 65.8L98.2 65.6C97.2 66.2 96.4 66.7 95.7 67.3C93.4 68.8 93.6 68.6 91.2 70.1C89.8 71.1 88.3 72 87 72.8C85.6 73.8 84 75 82.4 75.7C82 75.9 81.6 75.9 81.3 76C81 76.1 80.8 76.1 80.6 76C80.1 75.7 79.8 75.3 79.7 74.9C79.1 73.5 79.1 72 79.4 70.6C79.5 70.4 79.5 70.2 79.6 70.1C79.9 69.3 79.8 68.2 79.8 68.2C79.6 67.5 79.2 67 78.6 66.8C77.4 66.7 76.7 67.5 75.9 67.6C76.4 66.6 77.2 65.7 76.9 64.3C76.5 62 74.1 61.6 72 61.2C70.1 61.4 68.4 62.6 67.2 63.9C66 65.4 64.7 66.6 63.6 68.3C63.4 68.5 63.2 69 62.8 69.5L62.1 70.7C61.9 71.4 61.6 71.9 61.5 72.5C61.5 72.6 61.5 72.6 61.4 72.7C61.2 73.3 61 73.8 60.7 74.5C60.3 76 60.6 77.3 61.5 78.5C62.1 78.8 62.9 79.3 63.1 79.5C63.4 79.6 63.7 79.6 63.9 79.6C65.4 80.2 67.1 80.2 68.7 79.4C70.3 78.7 71.9 77.4 73.1 76.5C73.3 76.4 73.4 76.1 73.6 75.9C74.3 75.9 74.3 74.9 75 74.5C75.1 74.7 75.1 74.9 75.3 75C75.6 75.5 75.5 75.7 76.1 76.3C76.5 77.2 77.2 77.6 77.8 78.4C78.1 78.5 78.3 78.9 78.6 79C78.8 79.2 79.4 79.2 79.6 79.3C80 79.4 80.9 79.2 81.3 79.2C81.6 79.2 82.1 79 82.2 79C82.5 79 83 78.8 83.2 78.7C83.7 78.4 84 78.5 84.6 78.2C85.6 77.5 86.5 77.3 87.3 76.4L89.7 74.6L91.2 73.3C91.5 73.2 92.2 72.4 92.3 72.3C92.8 72.1 93.2 71.6 93.5 71.3C93.8 71.1 94.5 70.8 95 70.4C96.3 69.5 97.9 68.2 98.9 66.7ZM74.5 69.5C73 71.1 72.3 72.3 70.8 73.9C69.8 75 68.9 75.7 67.6 76.2C66.6 76.6 64.8 76.7 63.7 76.7C64.2 74.7 65.1 73 66 71.4C67.1 69.5 70.6 64.8 73.6 64.3C73.5 64.4 72.7 68.8 74.9 69H75C75 69 74.6 69.5 74.5 69.5Z" fill="black"/>
<path class='logo-fill' d="M124.1 80.8C123.4 80.3 122.4 80.1 121.6 79.5C120.2 78.9 119.8 78.5 119.8 78.5C119.9 78 119.8 77.1 119.8 76.9C119.8 76.8 119.8 76.7 119.6 76.6C119.7 76.6 119.8 76.5 120 76.3C119.8 75.6 119.7 75.1 119.5 74.6C119.1 73.4 118.6 72.3 117.9 71.4C117 70.3 116 69.6 114.2 69C112.8 68.7 111.1 68.9 110.2 69C111.7 67.3 112.7 66.4 113.5 65.4C114.3 64.7 114.8 64.1 115.6 63.5C115.6 63.5 115.7 63.5 115.8 63.4C116.5 62.7 117.2 62 117.7 61.1C118.6 60.2 119.4 59.2 120.1 58.3C120.7 57.9 121.2 57.5 120.9 56.9C121.3 56.5 121.7 56.3 121.4 56C121.1 55.6 120.7 55.1 120.1 55C119.4 54.7 119.1 54.4 118.1 54.4L113.6 54.6C112.8 54.5 112.1 54.5 111.2 54.6H109.3C108.9 54.5 108.2 54.5 107.7 54.9C107.3 54.9 107.6 55.6 107.2 55.8C107.1 56 107 56.3 107.3 56.5C107.7 56.6 107.8 56.9 108.2 57.2C108.6 57.9 109.6 58 110.3 58C112.6 58 114.1 58 116.3 57.8C116 58 115.2 58.9 114.4 59.8C112.8 61.7 110.2 64.2 110 64.4C108.6 65.6 107.3 66.4 106.3 67.8C106.5 67.8 106.1 69.9 106.7 70.3C106.9 70.8 107.4 71.4 107.6 71.9C107.8 72.8 108.5 72.7 109.2 72.7C111.3 72.3 111.6 72.2 113.6 72.8C115.8 73.9 116 75.6 116 77.9C115.5 77.8 114.6 77.9 113.8 77.9C113.1 77.8 112.2 77.8 111.8 78C111.1 78.3 110.5 78.7 109.7 78.7C107.9 79.3 106.3 80.1 104.5 81.4C104 81.6 103.6 81.9 103 82.3C101.8 83.5 100.4 84.7 99.1 86C98 87.1 96.9 88 95.8 89.4C94.5 91.2 93.2 93.3 92 95.2C90.8 97.1 89.6 99.5 88.6 101.8C87.7 104.3 86.9 106.8 86.2 109.3C85.9 109.9 86 110.3 85.9 110.8C85.8 111.8 85.5 112.8 85.1 113.7C85.1 114.1 85.4 114.6 85.3 114.8C85 115.7 84.8 116.6 85.3 117.7C85.4 117.8 85.4 117.9 85.5 118.4C85.7 119.7 86.2 120.6 86.8 121.3C87.3 122.1 88 122.5 88.5 123.2C89.4 124 90.7 124.3 92.1 123.8C92.7 123.7 93.3 123.3 93.8 123.2C94.9 123.3 95.7 122.6 96.4 122.2C97.9 121.5 98.8 120.9 100 119.8C100.6 119.5 101.2 119.4 101.6 118.9C102.8 117.8 103.8 116.8 104.7 115.8C104.9 115.3 105.4 115.2 105.8 114.8C106 114.5 106.1 114.3 106.3 114.1C106.5 114 106.7 113.4 106.8 113.2L107.7 112.2C107.7 112.1 108.1 111.8 108.2 111.6C108.8 110.9 109.2 110.5 109.7 109.8C110 109 110.7 108 111.2 106.9C111.3 106.8 111.3 106.5 111.4 106.2C111.8 105.9 112.2 105.3 112.6 104.9C113 104.3 113.1 103.8 113.3 103.3C114.1 101.9 115.1 100.3 115.6 98.5C115.6 98.5 115.6 98.4 115.9 98.3C116.1 97.6 116.2 97 116.4 96.4C116.4 96.5 116.6 96.5 116.9 96.5C116.8 96.3 116.8 96.2 116.6 96C116.8 95.7 117 95.4 117 95.3L117.6 92.5C117.8 92 117.9 91.6 118 91.1C118.2 90.8 118.5 90.4 118.6 90.1C118.4 89.7 118.6 88.9 118.6 88.4C118.6 87.5 119.1 86.5 119.2 85.6C119.1 85.2 119.4 84.9 119.5 83.8C119.3 83.8 119.3 83.8 119.3 83.6C119.4 83.4 119.6 82.7 119.9 82.3C120 82 120.1 81.6 119.7 80.8C121.1 81 121.9 81.4 123 81.8C123.7 82.2 124.1 82.7 124.9 82.9C125 83.3 125.5 83.3 125.8 83C125.2 81.9 124.7 81.3 124.1 80.8ZM115 87.8C114.6 89.4 114.1 91.1 113.6 92.8C112.7 94.8 111.5 97.1 110.6 99C109.5 101.2 108 103.5 106.6 105.5C105.6 107 104.5 108.6 103.4 109.9C102.5 111.3 101.3 112.3 100.3 113.2C98.9 114.7 97.1 115.8 95.6 116.9C94.4 117.6 93.1 118 91.7 118.9C91.2 119 90.5 119.5 90.1 119.2C89.5 119.2 89.4 119 89.1 118.8C89.6 117.9 89.5 117.4 89.4 116.8C88.9 116.5 89 116.1 89.4 115.6C89.6 115 89.6 114.2 89.7 113.6C89.9 112 90.2 110.3 90.5 108.9C90.7 108 90.8 107.4 90.9 106.6C90.9 106.5 91 106.5 91.2 106.3C91.4 105.8 92.2 104.1 92.3 103.4L93.9 99.8C93.9 99.7 93.7 99.3 93.8 99C94.3 98.9 94.5 98.6 94.7 98.4V98.3L94.5 98.1C95.3 97.1 95.9 95.9 97 94.6C97.4 94.5 98 92.7 98.5 92.8C98.5 92.3 98.9 91.9 99.6 91.5C99.8 91.4 100 91 100.1 90.7C100.5 90.4 100.9 89.9 101.1 89.7C101.2 89.4 101.6 88.9 101.7 88.5C101.9 88.5 102 88.4 102.5 88.2H102.8C103 87.7 103.3 87.7 103.8 87.4C104.9 87.3 105.5 85.7 106.6 84.9C106.9 84.9 107.1 84.1 107.8 84.3C107.9 84.3 107.9 84 108 83.8C108.6 83.6 109.3 83.7 110 83.3C110.4 82.8 110.8 82.8 111.1 82.7C112 82.4 112.9 82 113.8 81.5L115.7 81.2C115.8 83.6 115.6 85.6 115 87.8Z" fill="black"/>
<path class='logo-fill' d="M152.3 66.2C152.6 66 152.8 65.7 153.1 65.5C153.1 65.4 153 65.4 153 65.4L152.8 64.7L149.4 67.2C149.2 67.4 148.6 67.7 148.2 67.9C147.2 68.5 145.3 69.6 144.4 70.2L144.1 70.4L140.8 72.3C140.3 72.6 139.8 72.6 139.3 72.8C138.5 73.1 137.7 73.5 137 73.8C136.1 74.1 135.2 74.5 134.3 74.6C133 74.8 131.7 74.7 130.4 74.8C129.6 74.5 129.4 74.3 129 73.1C129.7 72.7 130 72.6 130.8 72.2C131 72 131.2 71.7 131.5 71.6C132.1 71.2 132.9 70.9 133.6 70.5C133.7 70.4 133.7 70.1 133.8 70L135.2 69C135.6 68.8 136.3 68.7 136.4 68C136.5 67.7 137.1 67.6 137.4 67.3C138.3 66.4 139.2 65.5 140.1 64.5C140.4 64.2 140.7 63.7 140.9 63.2C141.2 62.4 140.7 60.7 139.9 60.2C139.2 59.6 138.4 59 137.5 58.6C136.8 58.2 135.9 57.5 134.9 57.9C134.5 58 134.2 58.1 133.9 58.1C132.6 58.2 131.5 58.8 130.6 59.7C129.7 60.7 128.8 61.7 127.9 62.8C127.4 63.4 127 64 126.6 64.6C125.6 66.5 125.1 68.4 125 70.4C125 71.1 124.9 71.8 125.4 73C125.6 74 125.6 74 125.8 74.2C126.4 75.1 126.8 75.7 127.5 76.2C127.6 76.3 127.9 76.4 128 76.6C129 77.4 129.4 77.5 130.3 77.8C131.2 78.1 132.3 78.3 133.3 78.4C134.1 78.5 134.8 78.3 135.6 78.1C136.1 78 136.7 77.9 137.1 77.7C137.4 77.5 137.6 77.4 138 77.4C138.7 77.3 139.4 77.3 140 77C141 76.6 141.8 75.9 142.7 75.4C143.4 74.9 144 74.5 144.8 74.1L146.7 72.6C147.1 72.3 147.6 71.9 148 71.5C148.1 71.4 148.5 71 148.6 70.7V70.6C148.7 69.9 149.1 69.7 149.5 69.4C149.2 69.1 149.4 68.9 149.8 68.7L150.1 68.3C150.6 68 150.6 67.7 150.8 67.5L152.3 66.2ZM129.6 67C130.2 65.8 130.9 64.6 131.7 63.5C132.4 62.6 133.3 62.1 134.2 61.4C135 60.8 135.9 60.8 136.8 60.4C137.2 60.2 137.7 61.1 137.4 61.6C137 62.3 136.6 62.9 136 63.4L133.3 65.8L130.6 68C130.2 68.3 129.7 68.6 128.9 69.1C129.1 68.3 129.3 67.6 129.6 67Z" fill="black"/>
<path class='logo-fill' d="M184.3 62.2C184.6 62 184.8 61.7 185.1 61.5C185.1 61.4 185 61.4 185 61.4L184.8 60.7L181.4 63.2C181.2 63.4 180.6 63.7 180.2 63.9C179.2 64.5 177.3 65.6 176.4 66.2L176.1 66.4L172.8 68.3C172.3 68.6 171.8 68.6 171.3 68.8C170.5 69.1 169.7 69.5 169 69.8C168.1 70.1 167.2 70.5 166.3 70.6C165 70.8 163.7 70.7 162.4 70.8C161.6 70.5 161.4 70.3 161 69.1C161.7 68.7 162 68.6 162.8 68.2C163 68 163.2 67.7 163.5 67.6C164.1 67.2 164.9 66.9 165.6 66.5C165.7 66.4 165.7 66.1 165.8 66L167.2 65C167.6 64.8 168.3 64.7 168.4 64C168.5 63.7 169.1 63.6 169.4 63.3C170.3 62.4 171.2 61.5 172.1 60.5C172.4 60.2 172.7 59.7 172.9 59.2C173.2 58.4 172.7 56.7 171.9 56.2C171.2 55.6 170.4 55 169.5 54.6C168.8 54.2 167.9 53.5 166.9 53.9C166.5 54 166.2 54.1 165.9 54.1C164.6 54.2 163.5 54.8 162.6 55.7C161.7 56.7 160.8 57.7 159.9 58.8C159.4 59.4 159 60 158.6 60.6C157.6 62.5 157.1 64.4 157 66.4C157 67.1 156.9 67.8 157.4 69C157.6 70 157.6 70 157.8 70.2C158.4 71.1 158.8 71.7 159.5 72.2C159.6 72.3 159.9 72.4 160 72.6C161 73.4 161.4 73.5 162.3 73.8C163.2 74.1 164.3 74.3 165.3 74.4C166.1 74.5 166.8 74.3 167.6 74.1C168.1 74 168.7 73.9 169.1 73.7C169.4 73.5 169.6 73.4 170 73.4C170.7 73.3 171.4 73.3 172 73C173 72.6 173.8 71.9 174.7 71.4C175.4 70.9 176 70.5 176.8 70.1L178.7 68.6C179.1 68.3 179.6 67.9 180 67.5C180.1 67.4 180.5 67 180.6 66.7V66.6C180.7 65.9 181.1 65.7 181.5 65.4C181.2 65.1 181.4 64.9 181.8 64.7L182.1 64.3C182.6 64 182.6 63.7 182.8 63.5L184.3 62.2ZM161.6 63C162.2 61.8 162.9 60.6 163.7 59.5C164.4 58.6 165.3 58.1 166.2 57.4C167 56.8 167.9 56.8 168.8 56.4C169.2 56.2 169.7 57.1 169.4 57.6C169 58.3 168.6 58.9 168 59.4L165.3 61.8L162.6 64C162.2 64.3 161.7 64.6 160.9 65.1C161.1 64.3 161.3 63.6 161.6 63Z" fill="black"/>
<path class='logo-fill' d="M192.2 77.8C193 78.1 193.4 77.9 193.6 76.7C193.8 76 193.8 75.3 194 74.6C194.3 73.7 194.4 72.8 194.8 71.8C195.4 70.6 196.2 69.5 196.8 68.1C197.5 66.9 198.3 65.9 199 64.9L200.9 62.4C201.4 61.9 202 61.4 202.6 60.9C202.8 60.6 203 60.2 203.3 60.1C203.9 59.7 204.5 59.5 204.9 59C205.5 58.5 206.1 58.6 206.7 58.6C208 59.2 208.6 58.9 208.6 58.9L208.7 58.4C208.5 57.9 208.3 57.5 207.9 57.2C207.7 57.2 207.6 57 207.5 56.9C207.1 56.5 206.6 56.1 206.1 55.7C204.9 55 203.5 55 202.2 56C201.1 56.7 200 57.5 199.1 58.8C198.4 59.5 197.8 60 197.3 60.9C197.2 61.2 196.8 61.5 196.5 61.9C196.5 61.4 196.7 61.1 196.7 60.8C196.8 59.9 196.7 59 196.4 58.2C196 56.7 195.2 56.2 194.2 56.6C193.9 56.6 193.5 56.8 193.3 57.1C193.2 57.2 193.2 57.6 193.1 57.8C192.9 59.2 192.6 60.5 192.4 61.9C192.2 63.2 191.7 64.6 191.5 66C191.5 67.1 191.1 68.2 190.9 69.3L190.1 73.4C189.8 74.7 190.3 75.7 190.7 76.7C191.5 77.1 191.6 77.5 192.2 77.8Z" fill="black"/>
<rect width="210" height="143" stroke="black"/>
</svg>
